<svg version="1.0" xmlns="http://www.w3.org/2000/svg"
 width="396.000000pt" height="253.000000pt" viewBox="0 0 396.000000 253.000000"
 preserveAspectRatio="xMidYMid meet">
<g transform="translate(0.000000,253.000000) scale(0.100000,-0.100000)"
stroke="none">
<path d="M2400 2335 c-96 -16 -214 -48 -293 -80 -180 -74 -298 -180 -606 -545
-247 -294 -363 -413 -449 -458 -135 -72 -239 -48 -322 73 -38 56 -39 70 0 50
40 -21 135 -19 185 4 129 58 252 318 185 389 -30 31 -84 29 -221 -12 -63 -18
-136 -36 -163 -40 -47 -7 -87 -34 -98 -66 -3 -10 -13 -5 -34 18 -23 26 -41 34
-86 42 -31 5 -103 23 -159 39 -124 37 -190 40 -220 10 -73 -73 77 -359 207
-397 83 -24 187 -9 235 34 15 13 17 11 22 -21 9 -53 72 -173 136 -259 181
-241 422 -439 731 -600 675 -352 1237 -394 1760 -131 119 60 262 151 365 233
90 71 237 203 232 208 -2 2 -136 -7 -298 -20 -690 -58 -1004 -61 -1162 -8 -40
13 -53 22 -55 40 -4 29 19 37 55 19 60 -32 185 -40 497 -34 166 3 384 13 486
22 360 30 492 43 496 48 3 3 -9 28 -26 56 -63 102 -73 146 -81 371 -8 240 -30
345 -103 495 -171 354 -509 537 -986 534 -85 -1 -189 -7 -230 -14z m-139
-1304 c31 -31 39 -83 19 -122 -13 -24 -61 -49 -96 -49 -37 0 -94 59 -94 97 1
91 108 137 171 74z"/>
</g>
</svg>
